<?xml version="1.0" encoding="utf-8"?>
<!-- Generator: Adobe Illustrator 18.1.0, SVG Export Plug-In . SVG Version: 6.00 Build 0)  -->
<svg version="1.1" id="图层_1" xmlns="http://www.w3.org/2000/svg" xmlns:xlink="http://www.w3.org/1999/xlink" x="0px" y="0px"
	 viewBox="76 -28 172 76" enable-background="new 76 -28 172 76" xml:space="preserve" width="100">
<linearGradient id="shape1_1_" gradientUnits="userSpaceOnUse" x1="149.6024" y1="14.1099" x2="150.6024" y2="14.1099" gradientTransform="matrix(0 12 14.1 0 37.28 -1787.48)">
	<stop  offset="0" style="stop-color:#B0B0B0"/>
	<stop  offset="0.15" style="stop-color:#EFEFEF"/>
	<stop  offset="0.25" style="stop-color:#F6F6F6"/>
	<stop  offset="0.52" style="stop-color:#D0D0D0"/>
	<stop  offset="0.69" style="stop-color:#B9B9B9"/>
	<stop  offset="0.8" style="stop-color:#AFAFAF"/>
	<stop  offset="0.92" style="stop-color:#A5A5A5"/>
	<stop  offset="1" style="stop-color:#BEBEBE"/>
</linearGradient>
<path id="shape1" fill="url(#shape1_1_)" d="M243.3,7.7v11.8l-12.1,0.2c0,0-2-0.2-2-5.9s2-5.9,2-5.9L243.3,7.7z"/>
<linearGradient id="shape3_1_" gradientUnits="userSpaceOnUse" x1="137.8077" y1="26.087" x2="137.8077" y2="25.087" gradientTransform="matrix(5.2 0 0 -4.6 -540.0399 105)">
	<stop  offset="0.18" style="stop-color:#31A8B9"/>
	<stop  offset="0.57" style="stop-color:#2A95A5"/>
	<stop  offset="0.8" style="stop-color:#227D8B"/>
	<stop  offset="0.9" style="stop-color:#1E727F"/>
</linearGradient>
<path id="shape3" fill="url(#shape3_1_)" d="M174.5-15h4.2c0.3,0,0.5,0.2,0.5,0.5v3.6c0,0.3-0.2,0.5-0.5,0.5h-4.2
	c-0.3,0-0.5-0.2-0.5-0.5v-3.6C174-14.8,174.2-15,174.5-15z"/>
<linearGradient id="shape4_1_" gradientUnits="userSpaceOnUse" x1="137.8077" y1="26.087" x2="137.8077" y2="25.087" gradientTransform="matrix(5.2 0 0 -4.6 -540.0399 160.53)">
	<stop  offset="0.18" style="stop-color:#31A8B9"/>
	<stop  offset="0.57" style="stop-color:#2A95A5"/>
	<stop  offset="0.8" style="stop-color:#227D8B"/>
	<stop  offset="0.9" style="stop-color:#1E727F"/>
</linearGradient>
<path id="shape4" fill="url(#shape4_1_)" d="M174.5,40.5h4.2c0.3,0,0.5,0.2,0.5,0.5v3.6c0,0.3-0.2,0.5-0.5,0.5h-4.2
	c-0.3,0-0.5-0.2-0.5-0.5V41C174,40.7,174.2,40.5,174.5,40.5z"/>
<linearGradient id="shape5_1_" gradientUnits="userSpaceOnUse" x1="151.2801" y1="20.6127" x2="151.2801" y2="19.6127" gradientTransform="matrix(62.3 0 0 -45.7 -9221.1201 933.5699)">
	<stop  offset="0.18" style="stop-color:#31A8B9"/>
	<stop  offset="0.57" style="stop-color:#2A95A5"/>
	<stop  offset="0.8" style="stop-color:#227D8B"/>
	<stop  offset="0.9" style="stop-color:#1E727F"/>
</linearGradient>
<path id="shape5" fill="url(#shape5_1_)" d="M173-8.4h61.3c0.3,0,0.5,0.2,0.5,0.5v44.6c0,0.3-0.2,0.6-0.5,0.6H173
	c-0.3,0-0.5-0.3-0.5-0.6V-7.9C172.5-8.2,172.7-8.4,173-8.4z"/>
<linearGradient id="shape6_1_" gradientUnits="userSpaceOnUse" x1="153.8264" y1="23.5443" x2="153.8264" y2="22.5443" gradientTransform="matrix(-57.3 0 0 -7.9 8946.4795 224.92)">
	<stop  offset="0.18" style="stop-color:#31A8B9"/>
	<stop  offset="0.57" style="stop-color:#2A95A5"/>
	<stop  offset="0.8" style="stop-color:#227D8B"/>
	<stop  offset="0.9" style="stop-color:#1E727F"/>
</linearGradient>
<path id="shape6" fill="url(#shape6_1_)" d="M160.9,38.9h-57.3v7.9h57.3V38.9z"/>
<linearGradient id="shape7_1_" gradientUnits="userSpaceOnUse" x1="151.3807" y1="20.5458" x2="151.3807" y2="19.5458" gradientTransform="matrix(67.9 0 0 -51.3 -10145.1699 1042.7599)">
	<stop  offset="0.18" style="stop-color:#31A8B9"/>
	<stop  offset="0.57" style="stop-color:#2A95A5"/>
	<stop  offset="0.8" style="stop-color:#227D8B"/>
	<stop  offset="0.9" style="stop-color:#1E727F"/>
</linearGradient>
<path id="shape7" fill="url(#shape7_1_)" d="M99.6-11.2h67.9v51.3H99.6V-11.2z"/>
<linearGradient id="shape8_1_" gradientUnits="userSpaceOnUse" x1="146.6085" y1="20.5458" x2="146.6085" y2="19.5458" gradientTransform="matrix(12.9 0 0 -51.3 -1798.0599 1042.7599)">
	<stop  offset="0.18" style="stop-color:#31A8B9"/>
	<stop  offset="0.57" style="stop-color:#2A95A5"/>
	<stop  offset="0.8" style="stop-color:#227D8B"/>
	<stop  offset="0.9" style="stop-color:#1E727F"/>
</linearGradient>
<path id="shape8" fill="url(#shape8_1_)" d="M86.7-11.2h12.9v51.3H86.7V-11.2z"/>
<linearGradient id="shape9_1_" gradientUnits="userSpaceOnUse" x1="144.9753" y1="20.5458" x2="144.9753" y2="19.5458" gradientTransform="matrix(10.1 0 0 -51.3 -1382.2001 1042.7599)">
	<stop  offset="0.18" style="stop-color:#31A8B9"/>
	<stop  offset="0.57" style="stop-color:#2A95A5"/>
	<stop  offset="0.8" style="stop-color:#227D8B"/>
	<stop  offset="0.9" style="stop-color:#1E727F"/>
</linearGradient>
<path id="shape9" fill="url(#shape9_1_)" d="M87.1-11.2v51.3c0,0-10.1,0-10.1-25.5S87.1-11.2,87.1-11.2z"/>
<linearGradient id="shape10_1_" gradientUnits="userSpaceOnUse" x1="83.4091" y1="20.5458" x2="83.4091" y2="19.5458" gradientTransform="matrix(1.1 0 0 -51.3 73.98 1042.74)">
	<stop  offset="0" style="stop-color:#30679B"/>
	<stop  offset="0.15" style="stop-color:#5D93CF"/>
	<stop  offset="0.25" style="stop-color:#B8C9E4"/>
	<stop  offset="0.44" style="stop-color:#3876B1"/>
	<stop  offset="0.6" style="stop-color:#30699E"/>
	<stop  offset="0.8" style="stop-color:#275785"/>
	<stop  offset="0.97" style="stop-color:#234F79"/>
	<stop  offset="1" style="stop-color:#326BA1"/>
</linearGradient>
<path id="shape10" fill="url(#shape10_1_)" d="M165.2-11.3h1.1V40h-1.1V-11.3z"/>
<g transform="translate(952.45,626.58)">
	
		<linearGradient id="shape11_1_" gradientUnits="userSpaceOnUse" x1="-801.1085" y1="-587.9133" x2="-801.1085" y2="-588.9133" gradientTransform="matrix(65.6 0 0 -1.5 51732.6992 -1514.53)">
		<stop  offset="0.18" style="stop-color:#31A8B9"/>
		<stop  offset="0.57" style="stop-color:#2A95A5"/>
		<stop  offset="0.8" style="stop-color:#227D8B"/>
		<stop  offset="0.9" style="stop-color:#1E727F"/>
	</linearGradient>
	<path id="shape11" fill="url(#shape11_1_)" d="M-852.8-632.7h65.6v1.5h-65.6V-632.7z"/>
	
		<linearGradient id="shape12_1_" gradientUnits="userSpaceOnUse" x1="-801.1085" y1="-587.9133" x2="-801.1085" y2="-588.9133" gradientTransform="matrix(65.6 0 0 -1.5 51732.6992 -1507.3)">
		<stop  offset="0.18" style="stop-color:#31A8B9"/>
		<stop  offset="0.57" style="stop-color:#2A95A5"/>
		<stop  offset="0.8" style="stop-color:#227D8B"/>
		<stop  offset="0.9" style="stop-color:#1E727F"/>
	</linearGradient>
	<path id="shape12" fill="url(#shape12_1_)" d="M-852.8-625.4h65.6v1.5h-65.6V-625.4z"/>
	
		<linearGradient id="shape13_1_" gradientUnits="userSpaceOnUse" x1="-801.1085" y1="-587.9133" x2="-801.1085" y2="-588.9133" gradientTransform="matrix(65.6 0 0 -1.5 51732.6992 -1503.6801)">
		<stop  offset="0.18" style="stop-color:#31A8B9"/>
		<stop  offset="0.57" style="stop-color:#2A95A5"/>
		<stop  offset="0.8" style="stop-color:#227D8B"/>
		<stop  offset="0.9" style="stop-color:#1E727F"/>
	</linearGradient>
	<path id="shape13" fill="url(#shape13_1_)" d="M-852.8-621.8h65.6v1.5h-65.6V-621.8z"/>
	
		<linearGradient id="shape14_1_" gradientUnits="userSpaceOnUse" x1="-801.1085" y1="-587.9133" x2="-801.1085" y2="-588.9133" gradientTransform="matrix(65.6 0 0 -1.5 51732.6992 -1500.0601)">
		<stop  offset="0.18" style="stop-color:#31A8B9"/>
		<stop  offset="0.57" style="stop-color:#2A95A5"/>
		<stop  offset="0.8" style="stop-color:#227D8B"/>
		<stop  offset="0.9" style="stop-color:#1E727F"/>
	</linearGradient>
	<path id="shape14" fill="url(#shape14_1_)" d="M-852.8-618.2h65.6v1.5h-65.6V-618.2z"/>
	
		<linearGradient id="shape15_1_" gradientUnits="userSpaceOnUse" x1="-801.1085" y1="-587.9133" x2="-801.1085" y2="-588.9133" gradientTransform="matrix(65.6 0 0 -1.5 51732.6992 -1496.4401)">
		<stop  offset="0.18" style="stop-color:#31A8B9"/>
		<stop  offset="0.57" style="stop-color:#2A95A5"/>
		<stop  offset="0.8" style="stop-color:#227D8B"/>
		<stop  offset="0.9" style="stop-color:#1E727F"/>
	</linearGradient>
	<path id="shape15" fill="url(#shape15_1_)" d="M-852.8-614.6h65.6v1.5h-65.6V-614.6z"/>
	
		<linearGradient id="shape16_1_" gradientUnits="userSpaceOnUse" x1="-801.1085" y1="-587.9133" x2="-801.1085" y2="-588.9133" gradientTransform="matrix(65.6 0 0 -1.5 51732.6992 -1492.3301)">
		<stop  offset="0.18" style="stop-color:#31A8B9"/>
		<stop  offset="0.57" style="stop-color:#2A95A5"/>
		<stop  offset="0.8" style="stop-color:#227D8B"/>
		<stop  offset="0.9" style="stop-color:#1E727F"/>
	</linearGradient>
	<path id="shape16" fill="url(#shape16_1_)" d="M-852.8-610.5h65.6v1.5h-65.6V-610.5z"/>
	
		<linearGradient id="shape17_1_" gradientUnits="userSpaceOnUse" x1="-801.1085" y1="-587.9133" x2="-801.1085" y2="-588.9133" gradientTransform="matrix(65.6 0 0 -1.5 51732.6992 -1489.01)">
		<stop  offset="0.18" style="stop-color:#31A8B9"/>
		<stop  offset="0.57" style="stop-color:#2A95A5"/>
		<stop  offset="0.8" style="stop-color:#227D8B"/>
		<stop  offset="0.9" style="stop-color:#1E727F"/>
	</linearGradient>
	<path id="shape17" fill="url(#shape17_1_)" d="M-852.8-607.1h65.6v1.5h-65.6V-607.1z"/>
	
		<linearGradient id="shape18_1_" gradientUnits="userSpaceOnUse" x1="-801.1085" y1="-587.9133" x2="-801.1085" y2="-588.9133" gradientTransform="matrix(65.6 0 0 -1.5 51732.6992 -1485.6901)">
		<stop  offset="0.18" style="stop-color:#31A8B9"/>
		<stop  offset="0.57" style="stop-color:#2A95A5"/>
		<stop  offset="0.8" style="stop-color:#227D8B"/>
		<stop  offset="0.9" style="stop-color:#1E727F"/>
	</linearGradient>
	<path id="shape18" fill="url(#shape18_1_)" d="M-852.8-603.8h65.6v1.5h-65.6V-603.8z"/>
	
		<linearGradient id="shape19_1_" gradientUnits="userSpaceOnUse" x1="-801.1085" y1="-587.9133" x2="-801.1085" y2="-588.9133" gradientTransform="matrix(65.6 0 0 -1.5 51732.6992 -1482.37)">
		<stop  offset="0.18" style="stop-color:#31A8B9"/>
		<stop  offset="0.57" style="stop-color:#2A95A5"/>
		<stop  offset="0.8" style="stop-color:#227D8B"/>
		<stop  offset="0.9" style="stop-color:#1E727F"/>
	</linearGradient>
	<path id="shape19" fill="url(#shape19_1_)" d="M-852.8-600.5h65.6v1.5h-65.6V-600.5z"/>
	
		<linearGradient id="shape20_1_" gradientUnits="userSpaceOnUse" x1="-801.1085" y1="-587.9133" x2="-801.1085" y2="-588.9133" gradientTransform="matrix(65.6 0 0 -1.5 51732.6992 -1478.3501)">
		<stop  offset="0.18" style="stop-color:#31A8B9"/>
		<stop  offset="0.57" style="stop-color:#2A95A5"/>
		<stop  offset="0.8" style="stop-color:#227D8B"/>
		<stop  offset="0.9" style="stop-color:#1E727F"/>
	</linearGradient>
	<path id="shape20" fill="url(#shape20_1_)" d="M-852.8-596.5h65.6v1.5h-65.6V-596.5z"/>
	
		<linearGradient id="shape21_1_" gradientUnits="userSpaceOnUse" x1="-801.1085" y1="-587.9133" x2="-801.1085" y2="-588.9133" gradientTransform="matrix(65.6 0 0 -1.5 51732.6992 -1474.7301)">
		<stop  offset="0.18" style="stop-color:#31A8B9"/>
		<stop  offset="0.57" style="stop-color:#2A95A5"/>
		<stop  offset="0.8" style="stop-color:#227D8B"/>
		<stop  offset="0.9" style="stop-color:#1E727F"/>
	</linearGradient>
	<path id="shape21" fill="url(#shape21_1_)" d="M-852.8-592.9h65.6v1.5h-65.6V-592.9z"/>
	
		<linearGradient id="shape22_1_" gradientUnits="userSpaceOnUse" x1="-801.1085" y1="-587.9133" x2="-801.1085" y2="-588.9133" gradientTransform="matrix(65.6 0 0 -1.5 51732.6992 -1471.1101)">
		<stop  offset="0.18" style="stop-color:#31A8B9"/>
		<stop  offset="0.57" style="stop-color:#2A95A5"/>
		<stop  offset="0.8" style="stop-color:#227D8B"/>
		<stop  offset="0.9" style="stop-color:#1E727F"/>
	</linearGradient>
	<path id="shape22" fill="url(#shape22_1_)" d="M-852.8-589.2h65.6v1.5h-65.6V-589.2z"/>
	
		<linearGradient id="shape23_1_" gradientUnits="userSpaceOnUse" x1="-801.1085" y1="-587.9133" x2="-801.1085" y2="-588.9133" gradientTransform="matrix(65.6 0 0 -1.5 51732.6992 -1518.15)">
		<stop  offset="0.18" style="stop-color:#31A8B9"/>
		<stop  offset="0.57" style="stop-color:#2A95A5"/>
		<stop  offset="0.8" style="stop-color:#227D8B"/>
		<stop  offset="0.9" style="stop-color:#1E727F"/>
	</linearGradient>
	<path id="shape23" fill="url(#shape23_1_)" d="M-852.8-636.3h65.6v1.5h-65.6V-636.3z"/>
	
		<linearGradient id="shape24_1_" gradientUnits="userSpaceOnUse" x1="-801.1085" y1="-587.9133" x2="-801.1085" y2="-588.9133" gradientTransform="matrix(65.6 0 0 -1.5 51732.6992 -1510.91)">
		<stop  offset="0.18" style="stop-color:#31A8B9"/>
		<stop  offset="0.57" style="stop-color:#2A95A5"/>
		<stop  offset="0.8" style="stop-color:#227D8B"/>
		<stop  offset="0.9" style="stop-color:#1E727F"/>
	</linearGradient>
	<path id="shape24" fill="url(#shape24_1_)" d="M-852.8-629h65.6v1.5h-65.6V-629z"/>
</g>
<linearGradient id="shape25_1_" gradientUnits="userSpaceOnUse" x1="132.5" y1="20.5458" x2="132.5" y2="19.5458" gradientTransform="matrix(3.8 0 0 -51.3 -338.59 1042.7599)">
	<stop  offset="0.18" style="stop-color:#31A8B9"/>
	<stop  offset="0.57" style="stop-color:#2A95A5"/>
	<stop  offset="0.8" style="stop-color:#227D8B"/>
	<stop  offset="0.9" style="stop-color:#1E727F"/>
</linearGradient>
<path id="shape25" fill="url(#shape25_1_)" d="M163-11.2h3.8v51.3H163V-11.2z"/>
<linearGradient id="shape26_1_" gradientUnits="userSpaceOnUse" x1="57.5" y1="20.5458" x2="57.5" y2="19.5458" gradientTransform="matrix(0.8 0 0 -51.3 120.94 1042.74)">
	<stop  offset="0" style="stop-color:#30679B"/>
	<stop  offset="0.15" style="stop-color:#5D93CF"/>
	<stop  offset="0.25" style="stop-color:#B8C9E4"/>
	<stop  offset="0.44" style="stop-color:#3876B1"/>
	<stop  offset="0.6" style="stop-color:#30699E"/>
	<stop  offset="0.8" style="stop-color:#275785"/>
	<stop  offset="0.97" style="stop-color:#234F79"/>
	<stop  offset="1" style="stop-color:#326BA1"/>
</linearGradient>
<path id="shape26" fill="url(#shape26_1_)" d="M166.5-11.3l0.8,51.3L166.5-11.3z"/>
<linearGradient id="shape27_1_" gradientUnits="userSpaceOnUse" x1="83.4091" y1="20.5458" x2="83.4091" y2="19.5458" gradientTransform="matrix(1.1 0 0 -51.3 -4.11 1042.7599)">
	<stop  offset="0.18" style="stop-color:#31A8B9"/>
	<stop  offset="0.57" style="stop-color:#2A95A5"/>
	<stop  offset="0.8" style="stop-color:#227D8B"/>
	<stop  offset="0.9" style="stop-color:#1E727F"/>
</linearGradient>
<path id="shape27" fill="url(#shape27_1_)" d="M87.1-11.2h1.1v51.3h-1.1V-11.2z"/>
<linearGradient id="shape28_1_" gradientUnits="userSpaceOnUse" x1="136.3298" y1="20.4328" x2="136.3298" y2="19.4328" gradientTransform="matrix(4.7 0 0 -64.7 -470.9 1304.0299)">
	<stop  offset="0.18" style="stop-color:#31A8B9"/>
	<stop  offset="0.57" style="stop-color:#2A95A5"/>
	<stop  offset="0.8" style="stop-color:#227D8B"/>
	<stop  offset="0.9" style="stop-color:#1E727F"/>
</linearGradient>
<path id="shape28" fill="url(#shape28_1_)" d="M167.9-18h3.9c0.2,0,0.4,0.3,0.4,0.6v63.6c0,0.3-0.2,0.5-0.4,0.5h-3.9
	c-0.2,0-0.4-0.2-0.4-0.5v-63.6C167.5-17.7,167.7-18,167.9-18z"/>
<linearGradient id="shape29_1_" gradientUnits="userSpaceOnUse" x1="136.2447" y1="20.4328" x2="136.2447" y2="19.4328" gradientTransform="matrix(4.7 0 0 -64.7 -466.1699 1304.0299)">
	<stop  offset="0.18" style="stop-color:#31A8B9"/>
	<stop  offset="0.57" style="stop-color:#2A95A5"/>
	<stop  offset="0.8" style="stop-color:#227D8B"/>
	<stop  offset="0.9" style="stop-color:#1E727F"/>
</linearGradient>
<path id="shape29" fill="url(#shape29_1_)" d="M172.2-18h3.9c0.2,0,0.4,0.3,0.4,0.6v63.6c0,0.3-0.2,0.5-0.4,0.5h-3.9
	c-0.2,0-0.4-0.2-0.4-0.5v-63.6C171.8-17.7,172-18,172.2-18z"/>
<linearGradient id="shape30_1_" gradientUnits="userSpaceOnUse" x1="146.6332" y1="20.827" x2="145.6332" y2="20.827" gradientTransform="matrix(12 0 0 -21.1 -1547.1001 426.68)">
	<stop  offset="0" style="stop-color:#B0B0B0"/>
	<stop  offset="0.15" style="stop-color:#EFEFEF"/>
	<stop  offset="0.25" style="stop-color:#F6F6F6"/>
	<stop  offset="0.52" style="stop-color:#D0D0D0"/>
	<stop  offset="0.69" style="stop-color:#B9B9B9"/>
	<stop  offset="0.8" style="stop-color:#AFAFAF"/>
	<stop  offset="0.92" style="stop-color:#A5A5A5"/>
	<stop  offset="1" style="stop-color:#BEBEBE"/>
</linearGradient>
<path id="shape30" fill="url(#shape30_1_)" d="M200.5-23.3h11.8l0.2,18.1c0,0-0.2,3-5.9,3c-5.7,0-5.9-3-5.9-3L200.5-23.3z"/>
<linearGradient id="shape31_2_" gradientUnits="userSpaceOnUse" x1="149.6039" y1="25.051" x2="148.6039" y2="25.051" gradientTransform="matrix(22.5 0 0 -5.1 -3148.3401 103.02)">
	<stop  offset="0" style="stop-color:#C4C4C4"/>
	<stop  offset="0.15" style="stop-color:#FFFFFF"/>
	<stop  offset="0.25" style="stop-color:#FFFFFF"/>
	<stop  offset="0.44" style="stop-color:#DFDFDF"/>
	<stop  offset="0.6" style="stop-color:#C7C7C7"/>
	<stop  offset="0.8" style="stop-color:#A8A8A8"/>
	<stop  offset="0.97" style="stop-color:#999999"/>
	<stop  offset="1" style="stop-color:#CBCBCB"/>
</linearGradient>
<path id="shape31" fill="url(#shape31_2_)" d="M195.6-26.2h21.7c0.3,0,0.4,0.1,0.4,0.3v2.3c0,0.2-0.1,0.3-0.4,0.3h-21.7
	c-0.3,0-0.4-0.1-0.4-0.3v-2.3C195.2-26.1,195.3-26.2,195.6-26.2z"/>
<linearGradient id="shape31_3_" gradientUnits="userSpaceOnUse" x1="151.1451" y1="25.3022" x2="152.1451" y2="25.3022" gradientTransform="matrix(1.010173e-009 22.5 5.1 -2.289726e-010 114.7387 -3398.2664)">
	<stop  offset="0" style="stop-color:#C4C4C4"/>
	<stop  offset="0.15" style="stop-color:#FFFFFF"/>
	<stop  offset="0.25" style="stop-color:#FFFFFF"/>
	<stop  offset="0.44" style="stop-color:#DFDFDF"/>
	<stop  offset="0.6" style="stop-color:#C7C7C7"/>
	<stop  offset="0.8" style="stop-color:#A8A8A8"/>
	<stop  offset="0.97" style="stop-color:#999999"/>
	<stop  offset="1" style="stop-color:#CBCBCB"/>
</linearGradient>
<path id="shape31_1_" fill="url(#shape31_3_)" d="M245.2,2.9v21.7c0,0.3-0.1,0.4-0.3,0.4h-2.3c-0.2,0-0.3-0.1-0.3-0.4V2.9
	c0-0.3,0.1-0.4,0.3-0.4h2.3C245.1,2.5,245.2,2.6,245.2,2.9z"/>
<linearGradient id="shape32_1_" gradientUnits="userSpaceOnUse" x1="153.7947" y1="35.5556" x2="153.7947" y2="34.5556" gradientTransform="matrix(-58.7 0 0 -1.8 9159.9805 108.92)">
	<stop  offset="0.18" style="stop-color:#31A8B9"/>
	<stop  offset="0.57" style="stop-color:#2A95A5"/>
	<stop  offset="0.8" style="stop-color:#227D8B"/>
	<stop  offset="0.9" style="stop-color:#1E727F"/>
</linearGradient>
<path id="shape32" fill="url(#shape32_1_)" d="M161.6,44.9h-58.7v1.8h58.7V44.9z"/>
</svg>
