<svg height="186" xmlns="http://www.w3.org/2000/svg" xmlns:xlink="http://www.w3.org/1999/xlink" viewBox="0 0 154 186" width="154">
    <defs>
        <linearGradient y2="0%" x2="0%" id="lg1" x1="100%" y1="0%">
            <stop stop-color="#bac0c1" offset="0"/>
            <stop stop-color="#f4fafc" offset="0.15"/>
            <stop stop-color="#f8fcfd" offset="0.25"/>
            <stop stop-color="#d5dbdd" offset="0.52"/>
            <stop stop-color="#bdc3c4" offset="0.69"/>
            <stop stop-color="#b3b8b9" offset="0.8"/>
            <stop stop-color="#a9aeaf" offset="0.97"/>
            <stop stop-color="#c2c7c9" offset="1"/>
        </linearGradient>
        <linearGradient y2="100%" x2="0%" id="lg2" x1="0%" y1="0%">
            <stop stop-color="#bac0c1" offset="0"/>
            <stop stop-color="#f4fafc" offset="0.15"/>
            <stop stop-color="#f8fcfd" offset="0.25"/>
            <stop stop-color="#d5dbdd" offset="0.52"/>
            <stop stop-color="#bdc3c4" offset="0.69"/>
            <stop stop-color="#b3b8b9" offset="0.8"/>
            <stop stop-color="#a9aeaf" offset="0.97"/>
            <stop stop-color="#c2c7c9" offset="1"/>
        </linearGradient>
        <linearGradient y2="100%" x2="0%" id="lg3" x1="0%" y1="0%">
            <stop stop-color="#a2a7a8" offset="0"/>
            <stop stop-color="#d7dcde" offset="0.15"/>
            <stop stop-color="#e9eced" offset="0.25"/>
            <stop stop-color="#b9bfc0" offset="0.52"/>
            <stop stop-color="#a5aaab" offset="0.69"/>
            <stop stop-color="#9ba0a1" offset="0.8"/>
            <stop stop-color="#939798" offset="0.97"/>
            <stop stop-color="#a9aeaf" offset="1"/>
        </linearGradient>
        <linearGradient y2="0%" x2="0%" id="lg4" x1="100%" y1="0%">
            <stop stop-color="#9d9d9d" offset="0"/>
            <stop stop-color="#d0d1d1" offset="0.15"/>
            <stop stop-color="#e5e6e6" offset="0.25"/>
            <stop stop-color="#b3b4b4" offset="0.52"/>
            <stop stop-color="#9fa0a0" offset="0.69"/>
            <stop stop-color="#969797" offset="0.8"/>
            <stop stop-color="#8e8e8e" offset="0.97"/>
            <stop stop-color="#a3a4a4" offset="1"/>
        </linearGradient>
        <linearGradient y2="0%" x2="0%" id="lg5" x1="100%" y1="0%">
            <stop stop-color="#c4aa84" offset="0"/>
            <stop stop-color="#ffe0b3" offset="0.15"/>
            <stop stop-color="#ffeed7" offset="0.25"/>
            <stop stop-color="#dfc297" offset="0.44"/>
            <stop stop-color="#c7ad86" offset="0.6"/>
            <stop stop-color="#a89170" offset="0.8"/>
            <stop stop-color="#998566" offset="0.97"/>
            <stop stop-color="#cbb189" offset="1"/>
        </linearGradient>
    </defs>
    <g transform="translate(-390,-292.19)">
        <path transform="translate(483.89,360.29)" d="M4.8,.8L4.8,4.7L0,4.7L0,.8C0,.3,.3,-0,.8,-0L4,-0C4.4,-0,4.8,.3,4.8,.8z" fill="url(#lg1)" id="shape1"/>
        <path transform="translate(445.18,360.29)" d="M4.8,.8L4.8,4.7L0,4.7L0,.8C0,.3,.3,-0,.8,-0L4,-0C4.4,-0,4.8,.3,4.8,.8z" fill="url(#lg1)" id="shape2"/>
        <path transform="translate(434.08,419.37)" d="M0,0L65.8,0L65.8,57.6L0,57.6L0,0z" fill="url(#lg2)" id="shape3"/>
        <path transform="translate(431.54,423.88)" d="M2.5,0L0,0L0,48.6L2.5,48.6L2.5,0z" fill="url(#lg2)" id="shape4"/>
        <path transform="translate(396.05,427.63)" d="M35.5,0L0,0L0,41.1L35.5,41.1L35.5,0z" fill="url(#lg2)" id="shape5"/>
        <path transform="translate(433.99,419.37)" d="M0,0L.5,57.6L0,0z" fill="url(#lg3)" id="shape6"/>
        <path transform="translate(430.99,427.63)" d="M.5,0L0,41.1L.5,0z" fill="url(#lg3)" id="shape7"/>
        <path transform="translate(502.38,427.63)" d="M35.5,0L0,0L0,41.1L35.5,41.1L35.5,0z" fill="url(#lg2)" id="shape8"/>
        <path transform="translate(499.88,423.88)" d="M2.5,0L0,0L0,48.6L2.5,48.6L2.5,0z" fill="url(#lg2)" id="shape9"/>
        <path transform="translate(502.44,427.63)" d="M.5,0L0,41.1L.5,0z" fill="url(#lg3)" id="shape10"/>
        <path transform="translate(499.39,419.37)" d="M0,0L.5,57.6L0,0z" fill="url(#lg3)" id="shape11"/>
        <path transform="translate(459.57,367)" d="M14.9,0L0,0L0,53.7C0,53.7,.2,59.2,7.6,59.2C14.9,59.2,14.9,53.7,14.9,53.7L14.9,0z" fill="url(#lg1)" id="shape12"/>
        <path transform="translate(442.55,369.15)" d="M1.3,-0L47.6,-0C48.3,-0,48.9,.6,48.9,1.3L48.9,3.6C48.9,4.3,48.3,4.9,47.6,4.9L1.3,4.9C.6,4.9,0,4.3,0,3.6L0,1.3C0,.6,.6,-0,1.3,-0z" fill="url(#lg1)" id="shape13"/>
        <path transform="translate(442.55,364.29)" d="M1.3,-0L47.6,-0C48.3,-0,48.9,.6,48.9,1.3L48.9,3.6C48.9,4.3,48.3,4.9,47.6,4.9L1.3,4.9C.6,4.9,0,4.3,0,3.6L0,1.3C0,.6,.6,-0,1.3,-0z" fill="url(#lg4)" id="shape14"/>
        <path transform="translate(391,420.83)" d="M1.3,0L3.8,0C4.5,0,5.1,.6,5.1,1.3L5.1,53.4C5.1,54.1,4.5,54.7,3.8,54.7L1.3,54.7C.6,54.7,0,54.1,0,53.4L0,1.3C0,.6,.6,0,1.3,0z" fill="url(#lg2)" id="shape15"/>
        <path transform="translate(537.88,420.83)" d="M1.3,0L3.8,0C4.5,0,5.1,.6,5.1,1.3L5.1,53.4C5.1,54.1,4.5,54.7,3.8,54.7L1.3,54.7C.6,54.7,0,54.1,0,53.4L0,1.3C0,.6,.6,0,1.3,0z" fill="url(#lg2)" id="shape16"/>
        <path transform="translate(457.29,354.85)" d="M0,9.6L19.4,9.6L17.1,0L2.3,0L0,9.6z" fill="url(#lg4)" id="shape17"/>
        <path transform="translate(436.33,293.19)" d="M0,31.6C0,14.1,14.2,0,31.7,0C49.1,0,63.3,14.1,63.3,31.6C63.3,49,49.1,63.2,31.7,63.2C14.2,63.2,0,49,0,31.6z" fill="#90999c" id="shape18"/>
        <path transform="translate(437.49,294.35)" d="M0,30.4C0,13.6,13.7,0,30.5,0C47.3,0,61,13.6,61,30.4C61,47.2,47.3,60.9,30.5,60.9C13.7,60.9,0,47.2,0,30.4z" fill="url(#lg1)" id="shape19"/>
        <g transform="translate(446.06,302.84)">
            <path stroke="#000000" d="M0,22C0,9.8,9.8,0,21.9,0C34,0,43.9,9.8,43.9,22C43.9,34.1,34,43.9,21.9,43.9C9.8,43.9,0,34.1,0,22z" fill="#000000" id="shape20"/>
            <path transform="translate(1.86,1.85)" d="M0,20.1C0,9,9,0,20.1,0C31.1,0,40.1,9,40.1,20.1C40.1,31.2,31.1,40.2,20.1,40.2C9,40.2,0,31.2,0,20.1z" fill="#9e9f9f" id="shape21"/>
            <path transform="translate(2.5,2.49)" d="M0,19.5C0,8.7,8.7,0,19.4,0C30.2,0,38.9,8.7,38.9,19.5C38.9,30.2,30.2,38.9,19.4,38.9C8.7,38.9,0,30.2,0,19.5z" fill="#ebeae9" id="shape22"/>
            <path stroke="#000000" transform="translate(9.15,15.99)" d="M0,17.4L11.7,6.7C11.7,6.7,15.6,3.4,16.5,.4C16.5,.4,17,-0.5,18,.4L19.6,2.5C19.6,2.5,20.5,3.9,19,3.9C19,3.9,15.8,4.7,12.3,7.7L0,17.4z" fill="#000000" id="shape23"/>
            <path stroke="#000000" transform="translate(20.89,20.61)" d="M0,1.6C0,.7,.7,0,1.6,0C2.5,0,3.2,.7,3.2,1.6C3.2,2.5,2.5,3.2,1.6,3.2C.7,3.2,0,2.5,0,1.6z" fill="#000000" id="shape24"/>
            <path transform="translate(21.52,21.25)" d="M-0,1C-0,.4,.4,-0,1,-0C1.5,-0,1.9,.4,1.9,1C1.9,1.5,1.5,1.9,1,1.9C.4,1.9,-0,1.5,-0,1z" fill="url(#lg5)" id="shape25"/>
            <path stroke="#000000" transform="translate(29.14,6.1)" d="M1.3,0L0,2.4" fill="none" id="shape26"/>
            <path stroke="#000000" transform="translate(13.87,6.1)" d="M0,0L1.3,2.4" fill="none" id="shape27"/>
            <path stroke="#000000" transform="translate(37.3,19.38)" d="M0,.5L2.8,0" fill="none" id="shape28"/>
            <path stroke="#000000" transform="translate(32.85,33.19)" d="M0,0L2,2" fill="none" id="shape29"/>
            <path stroke="#000000" transform="translate(8.54,32.01)" d="M2.4,0L0,2.1" fill="none" id="shape30"/>
            <path stroke="#000000" transform="translate(4.05,19.51)" d="M2.9,.4L0,0" fill="none" id="shape31"/>
            <g transform="translate(17.85,35.07)">
                <path stroke="#000000" d="M0,0L8.2,0L8.2,3.9L0,3.9L0,0z" fill="#000000" id="shape32"/>
                <path stroke="#ffffff" transform="translate(0.68,0.58)" d="M0,0L6.8,0L6.8,2.7L0,2.7L0,0z" fill="none" id="shape33" stroke-width="0.75"/>
            </g>
            <path transform="translate(10.28,3.49)" d="M21,24.8C29.8,11.4,19.7,0,19.7,0C26.8,3.1,31.7,10.2,31.7,18.4C31.7,29.5,22.7,38.6,11.6,38.6C7.3,38.6,3.3,37.2,0,34.8C.5,35.3,12.3,38.1,21,24.8z" fill="#ffffff" id="shape34" fill-opacity="0.73"/>
        </g>
    </g>
</svg>
